<svg xmlns="http://www.w3.org/2000/svg" viewBox="0 0 24 24" class="fm_fill" fill="currentColor" width="24" height="24"><title>mood-question</title><line class="a" x1="12" y1="16.5" x2="12" y2="16.5" fill="inherit" stroke="#000000" stroke-width="0.5" stroke-linecap="round" stroke-linejoin="round"/><path class="a" d="M12 16.5 A0.375 0.375 0 1 0 12.375 16.875 A0.375 0.375 0 0 0 12 16.5" fill="inherit" stroke="#000000" stroke-width="0.5" stroke-linecap="round" stroke-linejoin="round"/><path class="a" d="M9 10.5 A3 3 0 1 1 12 13.5" fill="inherit" stroke="#000000" stroke-width="0.5" stroke-linecap="round" stroke-linejoin="round"/><path class="a" d="M23.25 12 A3.751 3.751 0 0 0 20.632 8.424 A3.75 3.75 0 0 0 15.576 3.3679999999999994 A3.751 3.751 0 0 0 8.424 3.3679999999999994 A3.75 3.75 0 0 0 3.368 8.424 A3.751 3.751 0 0 0 3.368 15.576 A3.75 3.75 0 0 0 8.424 20.632 A3.751 3.751 0 0 0 15.576 20.632 A3.75 3.75 0 0 0 20.632 15.576 A3.752 3.752 0 0 0 23.25 12 Z" fill="inherit" stroke="#000000" stroke-width="0.5" stroke-linecap="round" stroke-linejoin="round"/></svg>