<svg height="512" viewBox="0 0 24 24" width="512" xmlns="http://www.w3.org/2000/svg"><g id="_01" data-name="01"><path d="m19.26875 13h-4.0375c-1.59375 0-2.23125-.6-2.23125-2.1v-6.8c0-1.5.6375-2.1 2.23125-2.1h4.0375c1.59375 0 2.23125.6 2.23125 2.1v6.8c0 1.5-.6375 2.1-2.23125 2.1z" fill="#6282c1"/><path d="m11 13.1v6.8c0 1.5-.6375 2.1-2.23125 2.1h-4.0375c-1.59375 0-2.23125-.6-2.23125-2.1v-6.8c0-1.5.6375-2.1 2.23125-2.1h4.0375c1.59375 0 2.23125.6 2.23125 2.1z" fill="#c0cdea"/><path d="m19.26875 22h-4.0375c-1.59375 0-2.23125-.6-2.23125-2.1v-2.8c0-1.5.6375-2.1 2.23125-2.1h4.0375c1.59375 0 2.23125.6 2.23125 2.1v2.8c0 1.5-.6375 2.1-2.23125 2.1z" fill="#f7b115"/><path d="m8.76875 9h-4.0375c-1.59375 0-2.23125-.6-2.23125-2.1v-2.8c0-1.5.6375-2.1 2.23125-2.1h4.0375c1.59375 0 2.23125.6 2.23125 2.1v2.8c0 1.5-.6375 2.1-2.23125 2.1z" fill="#ef7a1b"/></g></svg>